<svg width="244" height="164" viewBox="0 0 244 164" fill="none" xmlns="http://www.w3.org/2000/svg">
<path d="M110.812 114.045V140H6.85127V119.354L59.9128 69.2135C65.5465 63.839 69.3459 59.2509 71.3112 55.4494C73.2764 51.5169 74.259 47.6498 74.259 43.8483C74.259 38.3427 72.3593 34.1479 68.5598 31.264C64.8914 28.2491 59.4542 26.7416 52.2483 26.7416C46.2216 26.7416 40.7844 27.9213 35.9368 30.2809C31.0892 32.5094 27.0277 35.9176 23.7523 40.5056L0.5625 25.5618C5.93416 17.5655 13.3366 11.339 22.7697 6.88202C32.2029 2.29401 43.0117 0 55.1962 0C65.4154 0 74.3245 1.70412 81.9235 5.11235C89.6534 8.38951 95.6146 13.1086 99.8072 19.2697C104.131 25.2996 106.292 32.4438 106.292 40.7023C106.292 48.1742 104.72 55.1873 101.576 61.7416C98.4315 68.2959 92.3392 75.7678 83.2991 84.1573L51.6588 114.045H110.812Z" fill="#56CCF2"/>
<g>
<path d="M189.144 140C198.243 140 219.25 111.539 230.02 98.1318C233.454 93.8357 235.347 88.3307 235.351 82.6322V8.67979H142.812V82.5353C142.816 88.2339 144.71 93.7388 148.144 98.0349C159.038 111.539 180.134 140 189.144 140Z" fill="#56CCF2"/>
<path d="M241.091 0H148.428C147.806 0 147.209 0.269443 146.769 0.749054C146.329 1.22867 146.082 1.87916 146.082 2.55743V76.3936C146.084 82.7624 148.213 88.9125 152.071 93.695C153.564 95.6324 155.235 97.5699 157.047 99.9529C172.811 119.909 186.513 136.435 194.76 136.435C203.006 136.435 216.726 119.909 232.489 99.9336C234.267 97.6474 236.044 95.5356 237.448 93.695C241.306 88.9125 243.435 82.7624 243.437 76.3936V2.55743C243.437 1.87916 243.19 1.22867 242.75 0.749054C242.31 0.269443 241.713 0 241.091 0V0ZM238.781 76.3936C238.784 81.5213 237.072 86.4745 233.965 90.3238C232.472 92.2613 230.783 94.2956 228.971 96.6205C219.356 108.749 201.46 131.34 194.76 131.34C188.059 131.34 170.181 108.749 160.584 96.6205L155.59 90.3238C152.483 86.4745 150.77 81.5213 150.774 76.3936V5.09549H238.781V76.3936Z" fill="#051B2C"/>
<path d="M169.648 95.6905C177.027 104.911 184.902 113.645 193.232 121.846C193.659 122.241 194.2 122.46 194.76 122.466C195.321 122.464 195.863 122.244 196.289 121.846C204.649 113.634 212.543 104.873 219.925 95.613C223.035 91.5056 225.95 87.6307 228.545 84.4146C230.223 82.3459 231.146 79.678 231.139 76.9167V14.9183C231.139 14.2452 230.894 13.5996 230.457 13.1237C230.021 12.6477 229.429 12.3803 228.811 12.3803H218.877C218.292 12.4359 217.748 12.7284 217.351 13.2001C216.955 13.6717 216.735 14.2882 216.735 14.928C216.735 15.5678 216.955 16.1843 217.351 16.656C217.748 17.1276 218.292 17.4201 218.877 17.4758H226.465V76.9167C226.461 78.4372 225.95 79.9042 225.026 81.0434C222.396 84.3177 219.445 88.2313 216.264 92.4356C209.497 100.871 202.318 108.903 194.76 116.499C187.208 108.903 180.035 100.871 173.274 92.4356C170.128 88.2895 167.16 84.3565 164.494 81.0434C163.571 79.9042 163.059 78.4372 163.055 76.9167V17.5339H194.76C195.084 17.5647 195.411 17.5218 195.719 17.4077C196.027 17.2937 196.309 17.1111 196.549 16.8715C196.789 16.6319 196.98 16.3406 197.111 16.016C197.242 15.6915 197.31 15.3407 197.31 14.9861C197.31 14.6316 197.242 14.2808 197.111 13.9563C196.98 13.6317 196.789 13.3404 196.549 13.1008C196.309 12.8612 196.027 12.6786 195.719 12.5646C195.411 12.4505 195.084 12.4076 194.76 12.4384H160.727C160.42 12.4358 160.115 12.4996 159.83 12.626C159.546 12.7524 159.287 12.939 159.069 13.1749C158.851 13.4108 158.678 13.6915 158.56 14.0007C158.442 14.3099 158.381 14.6415 158.381 14.9765V76.9748C158.383 79.7345 159.305 82.3994 160.976 84.4727C163.606 87.6695 166.538 91.5638 169.648 95.6905Z" fill="#051B2C"/>
<path d="M201.655 17.5339H208.178C208.502 17.5647 208.828 17.5218 209.136 17.4077C209.444 17.2937 209.727 17.1111 209.967 16.8715C210.207 16.6319 210.398 16.3406 210.529 16.016C210.66 15.6915 210.728 15.3407 210.728 14.9861C210.728 14.6316 210.66 14.2808 210.529 13.9563C210.398 13.6317 210.207 13.3404 209.967 13.1008C209.727 12.8612 209.444 12.6786 209.136 12.5646C208.828 12.4505 208.502 12.4076 208.178 12.4384H201.655C201.331 12.4076 201.005 12.4505 200.697 12.5646C200.389 12.6786 200.106 12.8612 199.866 13.1008C199.627 13.3404 199.435 13.6317 199.304 13.9563C199.173 14.2808 199.105 14.6316 199.105 14.9861C199.105 15.3407 199.173 15.6915 199.304 16.016C199.435 16.3406 199.627 16.6319 199.866 16.8715C200.106 17.1111 200.389 17.2937 200.697 17.4077C201.005 17.5218 201.331 17.5647 201.655 17.5339Z" fill="#051B2C"/>
<path d="M196.595 44.8667V26.6667H192.475L186.186 31.0551L188.544 34.1244L192.098 31.4859V44.8667H196.595Z" fill="#051B2C"/>
<path d="M199.482 61.6227C200.394 60.8701 201.078 59.975 201.485 59.0003C201.702 58.4474 201.807 57.8727 201.796 57.2958C201.833 56.4635 201.608 55.6365 201.14 54.8832C200.745 54.2285 200.168 53.6468 199.447 53.1787C198.728 52.7237 197.893 52.3847 196.995 52.1822C196.089 51.9715 195.146 51.8654 194.198 51.8675C193.198 51.855 192.204 51.9794 191.262 52.2347C190.354 52.4951 189.522 52.8869 188.81 53.3885C188.102 53.9083 187.508 54.5102 187.049 55.1717C186.572 55.9298 186.28 56.7472 186.186 57.5843L190.882 58.135C190.942 57.4337 191.266 56.7602 191.815 56.1944C192.054 55.9587 192.364 55.7694 192.718 55.6418C193.072 55.5142 193.461 55.4519 193.853 55.4602C194.204 55.4534 194.554 55.501 194.881 55.6002C195.207 55.6994 195.504 55.848 195.752 56.0371C196.247 56.4625 196.507 57.0168 196.477 57.5843C196.482 58.0886 196.315 58.5853 195.994 59.0266C195.657 59.4951 195.239 59.9273 194.751 60.3115L186.565 66.5527V70.0667H201.761V66.3954H193.231L198.101 62.7503C198.584 62.3832 199.033 62.016 199.482 61.6227Z" fill="#051B2C"/>
<path d="M196.05 92.4142C195.771 92.5841 195.458 92.7132 195.126 92.7959C194.765 92.9023 194.387 92.9665 194.004 92.9867C193.18 92.9992 192.379 92.7561 191.761 92.3052C191.213 91.8617 190.814 91.3072 190.606 90.6969L186.186 91.76C186.413 92.5588 186.815 93.3165 187.373 93.9953C187.878 94.5806 188.503 95.0881 189.221 95.4945C189.954 95.8837 190.755 96.1778 191.596 96.3668C192.456 96.5617 193.344 96.6625 194.235 96.6667C195.164 96.6578 196.086 96.5385 196.974 96.3123C197.847 96.0795 198.662 95.7195 199.382 95.2492C200.117 94.7516 200.714 94.1285 201.131 93.4228C201.623 92.5742 201.85 91.6369 201.79 90.6969C201.833 89.7144 201.46 88.7505 200.735 87.971C200.396 87.5908 199.983 87.2592 199.514 86.9896C199.047 86.7172 198.52 86.5227 197.963 86.4172C198.932 86.1755 199.779 85.6775 200.372 84.9997C201.054 84.2065 201.391 83.2456 201.328 82.2738C201.359 81.4701 201.144 80.6731 200.702 79.9567C200.325 79.3223 199.784 78.764 199.118 78.3212C198.448 77.8919 197.687 77.5684 196.875 77.3671C196.029 77.1591 195.15 77.058 194.268 77.0673C193.44 77.0579 192.616 77.1592 191.827 77.3671C191.04 77.5626 190.295 77.8568 189.617 78.2394C188.949 78.6364 188.369 79.1251 187.901 79.6841C187.397 80.3114 187.018 81.0017 186.779 81.7286L191.2 82.6827C191.327 82.1082 191.674 81.5827 192.19 81.1834C192.661 80.8124 193.288 80.6071 193.938 80.611C194.593 80.6088 195.225 80.8024 195.72 81.1561C195.978 81.3407 196.181 81.5721 196.312 81.8322C196.444 82.0923 196.501 82.3741 196.479 82.6554C196.497 83.0428 196.395 83.4277 196.182 83.773C195.988 84.0422 195.716 84.2671 195.39 84.4273C195.041 84.5938 194.663 84.7135 194.268 84.7816C193.829 84.8096 193.388 84.8096 192.949 84.7816H191.563V87.9437H192.85C193.349 87.9487 193.846 87.9943 194.334 88.08C194.797 88.1447 195.243 88.2738 195.654 88.4616C196.023 88.6484 196.338 88.8996 196.578 89.1976C196.825 89.5539 196.951 89.9591 196.941 90.3698C196.944 90.7444 196.854 91.1155 196.677 91.4601C196.547 91.8097 196.334 92.1341 196.05 92.4142Z" fill="#051B2C"/>
</g>
</svg>
