<svg width="272" height="164" viewBox="0 0 272 164" fill="none" xmlns="http://www.w3.org/2000/svg">
<path d="M94.4307 0V140H63.4522V26H36.6807V0H94.4307Z" fill="#FB3449"/>
<g>
<path d="M143.051 37.7721L181.054 44.2639L228.672 52.4123L216.697 97.5717L143.051 94.6317V37.7721Z" fill="#FB3449"/>
<path d="M126.431 6.68585V14.9536L142.665 18.9084V10.6854L126.431 6.68585Z" fill="#FB3449"/>
<path d="M157.222 140C161.877 140 165.65 136.205 165.65 131.523C165.65 126.842 161.877 123.047 157.222 123.047C152.567 123.047 148.793 126.842 148.793 131.523C148.793 136.205 152.567 140 157.222 140Z" fill="#FB3449"/>
<path d="M196.278 140C200.933 140 204.707 136.205 204.707 131.523C204.707 126.842 200.933 123.047 196.278 123.047C191.623 123.047 187.85 126.842 187.85 131.523C187.85 136.205 191.623 140 196.278 140Z" fill="#FB3449"/>
<path d="M205.672 107.168H143.036V115.734H205.672V107.168Z" fill="#FB3449"/>
<path d="M162.311 116.405C160.257 116.405 158.248 117.018 156.54 118.166C154.832 119.314 153.501 120.945 152.715 122.854C151.928 124.763 151.723 126.864 152.123 128.89C152.524 130.917 153.514 132.778 154.966 134.239C156.419 135.7 158.27 136.695 160.285 137.098C162.3 137.501 164.388 137.294 166.286 136.504C168.184 135.713 169.807 134.374 170.948 132.656C172.089 130.938 172.698 128.918 172.698 126.852C172.698 124.082 171.604 121.424 169.656 119.465C167.708 117.506 165.066 116.405 162.311 116.405ZM162.311 133.359C161.027 133.362 159.772 132.982 158.703 132.266C157.634 131.551 156.801 130.532 156.308 129.34C155.815 128.148 155.686 126.835 155.936 125.569C156.185 124.302 156.803 123.139 157.711 122.226C158.619 121.313 159.776 120.691 161.035 120.44C162.294 120.189 163.599 120.319 164.785 120.815C165.97 121.31 166.983 122.149 167.694 123.223C168.406 124.298 168.784 125.561 168.781 126.852C168.769 128.57 168.082 130.214 166.87 131.424C165.658 132.635 164.019 133.314 162.311 133.314V133.359Z" fill="#051B2C"/>
<path d="M201.368 116.405C199.313 116.405 197.305 117.018 195.597 118.166C193.889 119.314 192.557 120.945 191.771 122.854C190.985 124.763 190.779 126.864 191.18 128.89C191.581 130.917 192.57 132.778 194.023 134.239C195.476 135.7 197.326 136.695 199.341 137.098C201.356 137.501 203.445 137.294 205.343 136.504C207.241 135.713 208.863 134.374 210.005 132.656C211.146 130.938 211.755 128.918 211.755 126.852C211.755 124.082 210.661 121.424 208.713 119.465C206.765 117.506 204.123 116.405 201.368 116.405ZM201.368 133.359C200.085 133.359 198.83 132.976 197.764 132.259C196.697 131.541 195.866 130.522 195.375 129.33C194.885 128.137 194.757 126.825 195.009 125.559C195.26 124.294 195.879 123.132 196.788 122.22C197.696 121.309 198.853 120.689 200.112 120.439C201.371 120.189 202.675 120.32 203.86 120.816C205.044 121.312 206.056 122.15 206.767 123.225C207.478 124.299 207.855 125.562 207.852 126.852C207.841 128.573 207.152 130.218 205.937 131.429C204.721 132.64 203.079 133.318 201.368 133.314V133.359Z" fill="#051B2C"/>
<path d="M235.008 46.6368C234.862 46.405 234.669 46.2068 234.441 46.0551C234.214 45.9034 233.957 45.8016 233.688 45.7563L203.045 40.5181C202.786 40.461 202.518 40.4575 202.258 40.5076C201.997 40.5577 201.75 40.6605 201.53 40.8097C201.31 40.9589 201.123 41.1514 200.979 41.3755C200.836 41.5997 200.739 41.8508 200.695 42.1137C200.65 42.3766 200.66 42.6458 200.722 42.905C200.784 43.1642 200.898 43.408 201.057 43.6216C201.216 43.8352 201.416 44.0141 201.645 44.1477C201.875 44.2812 202.129 44.3664 202.392 44.3983L230.913 49.2485L219.917 90.8261L149.699 88.0503V35.3843L155.708 36.414H156.035C156.524 36.4108 156.994 36.2238 157.352 35.8898C157.711 35.5558 157.933 35.0989 157.974 34.609C158.015 34.119 157.872 33.6314 157.574 33.2419C157.275 32.8524 156.843 32.5892 156.361 32.504L149.699 31.34V5.96952C149.698 5.53032 149.552 5.10378 149.283 4.75768C149.014 4.41157 148.638 4.16576 148.215 4.05928L131.981 1.31801e-05C131.688 -0.074421 131.382 -0.0791827 131.087 -0.0138939C130.792 0.0513949 130.516 0.184937 130.281 0.376136C130.046 0.567336 129.859 0.81093 129.734 1.08759C129.609 1.36425 129.55 1.66636 129.562 1.96995V10.2377C129.56 10.6776 129.705 11.1054 129.974 11.4521C130.243 11.7987 130.621 12.0439 131.046 12.148L145.722 15.7297V111.018C145.722 111.54 145.928 112.042 146.295 112.411C146.663 112.78 147.161 112.988 147.68 112.988H210.761C211.278 112.984 211.773 112.775 212.137 112.406C212.501 112.037 212.705 111.538 212.705 111.018V102.452C212.701 101.931 212.494 101.432 212.127 101.063C211.761 100.695 211.265 100.486 210.746 100.482H149.699V91.9603L221.312 94.8108H221.401C221.835 94.8073 222.256 94.6588 222.597 94.3886C222.938 94.1185 223.18 93.742 223.285 93.3184L235.246 48.2038C235.319 47.9406 235.336 47.6648 235.295 47.3946C235.254 47.1244 235.156 46.8661 235.008 46.6368ZM133.465 4.47715L145.722 7.4619V11.6406L133.405 8.65581L133.465 4.47715ZM208.802 104.466V109.093H149.699V104.466H208.802Z" fill="#051B2C"/>
<path d="M171.393 39.0854L179.881 40.5778C179.99 40.5918 180.099 40.5918 180.208 40.5778C180.714 40.6085 181.213 40.4388 181.597 40.1048C181.98 39.7708 182.219 39.2991 182.262 38.7905C182.304 38.2819 182.148 37.7767 181.825 37.3828C181.502 36.9889 181.039 36.7376 180.534 36.6827L172.046 35.1903C171.547 35.1298 171.043 35.2651 170.64 35.5681C170.237 35.871 169.965 36.3184 169.881 36.8174C169.797 37.3164 169.907 37.8288 170.189 38.2483C170.47 38.6678 170.902 38.9622 171.393 39.0705V39.0854Z" fill="#051B2C"/>
<path d="M185.519 78.4245L203.074 60.9189L194.289 59.6205L198.86 29.5789L187.092 27.8329L182.537 57.8744L173.752 56.5611L185.519 78.4245Z" fill="#051B2C"/>
</g>
</svg>
