<svg width="283" height="164" viewBox="0 0 283 164" fill="none" xmlns="http://www.w3.org/2000/svg">
<path d="M72.9012 56.0393C84.9611 58.0056 94.2027 62.5281 100.626 69.6067C107.049 76.5543 110.261 85.206 110.261 95.5618C110.261 103.558 108.163 110.964 103.969 117.781C99.7739 124.466 93.3506 129.841 84.699 133.905C76.1784 137.968 65.6915 140 53.2383 140C43.5379 140 33.9686 138.755 24.5304 136.264C15.2233 133.642 7.29259 129.972 0.738281 125.253L13.1259 100.871C18.3694 104.803 24.3993 107.884 31.2158 110.112C38.1634 112.21 45.242 113.258 52.4518 113.258C60.448 113.258 66.7402 111.751 71.3282 108.736C75.9162 105.59 78.2102 101.199 78.2102 95.5618C78.2102 84.2884 69.624 78.6517 52.4518 78.6517H37.9012V57.6124L66.2158 25.5618H7.6203V0H103.969V20.6461L72.9012 56.0393Z" fill="#5578D2"/>
<g>
<path d="M207.998 140.019C244.304 140.019 273.736 110.587 273.736 74.2814C273.736 37.9755 244.304 8.54376 207.998 8.54376C171.692 8.54376 142.261 37.9755 142.261 74.2814C142.261 110.587 171.692 140.019 207.998 140.019Z" fill="#5578D2"/>
<path d="M214.025 2.66478e-06C200.524 -0.00376914 187.325 3.99659 176.097 11.4951C164.87 18.9936 156.119 29.6534 150.95 42.1261C145.782 54.5989 144.429 68.3243 147.062 81.5662C149.695 94.8082 156.196 106.972 165.742 116.519C175.289 126.065 187.453 132.566 200.695 135.199C213.937 137.832 227.662 136.479 240.135 131.311C252.608 126.142 263.267 117.391 270.766 106.164C278.264 94.9362 282.265 81.7371 282.261 68.2359C282.236 50.1464 275.039 32.805 262.247 20.0137C249.456 7.22245 232.115 0.0252287 214.025 2.66478e-06ZM214.025 131.456C201.521 131.456 189.298 127.748 178.902 120.802C168.505 113.855 160.402 103.981 155.617 92.4293C150.832 80.8773 149.58 68.1658 152.02 55.9023C154.459 43.6387 160.48 32.374 169.322 23.5325C178.163 14.6909 189.428 8.6698 201.691 6.23043C213.955 3.79106 226.666 5.04303 238.218 9.82802C249.77 14.613 259.644 22.7161 266.591 33.1126C273.538 43.5092 277.245 55.7321 277.245 68.2359C277.225 84.9968 270.558 101.065 258.706 112.917C246.855 124.769 230.786 131.436 214.025 131.456Z" fill="#051B2C"/>
<path d="M263.075 40.0491C262.731 39.4957 262.186 39.0973 261.554 38.9377C260.922 38.7782 260.253 38.8698 259.687 39.1933C259.122 39.5169 258.704 40.0472 258.521 40.6727C258.338 41.2982 258.405 41.9702 258.708 42.5473C264.992 53.4539 267.074 66.2814 264.561 78.6156C262.048 90.9498 255.113 101.94 245.062 109.518C235.012 117.097 222.538 120.74 209.988 119.763C197.438 118.786 185.678 113.255 176.922 104.213C168.165 95.1703 163.015 83.2389 162.441 70.6644C161.868 58.0898 165.91 45.7391 173.807 35.9368C181.704 26.1344 192.911 19.5564 205.32 17.4407C217.729 15.3249 230.483 17.8174 241.182 24.449C241.752 24.7967 242.436 24.9055 243.086 24.752C243.735 24.5985 244.298 24.195 244.653 23.6289C244.827 23.3488 244.944 23.037 244.997 22.7115C245.05 22.3859 245.038 22.0531 244.962 21.7322C244.885 21.4113 244.746 21.1086 244.553 20.8417C244.359 20.5748 244.114 20.3489 243.832 20.1771C232.126 12.9362 218.178 10.2218 204.611 12.5445C191.044 14.8673 178.793 22.0671 170.162 32.7898C161.531 43.5125 157.116 57.0191 157.746 70.7693C158.376 84.5195 164.008 97.5656 173.583 107.454C183.159 117.342 196.017 123.391 209.74 124.464C223.462 125.536 237.104 121.557 248.099 113.276C259.094 104.995 266.684 92.9815 269.442 79.496C272.2 66.0106 269.936 51.9821 263.075 40.0491Z" fill="#051B2C"/>
<path d="M253.063 34.5948C253.301 34.8661 253.594 35.0832 253.923 35.2313C254.252 35.3793 254.61 35.4549 254.97 35.453C255.574 35.4592 256.158 35.2418 256.61 34.8427C256.86 34.6288 257.065 34.3678 257.214 34.0746C257.362 33.7814 257.451 33.4618 257.476 33.134C257.501 32.8063 257.461 32.4769 257.358 32.1646C257.255 31.8524 257.092 31.5635 256.877 31.3146C254.882 28.9982 252.701 26.8487 250.355 24.8876C249.841 24.5555 249.224 24.422 248.618 24.5122C248.013 24.6023 247.461 24.9098 247.066 25.3773C246.671 25.8448 246.46 26.4401 246.472 27.052C246.484 27.6639 246.719 28.2504 247.132 28.7018C249.268 30.4991 251.252 32.4701 253.063 34.5948Z" fill="#051B2C"/>
<path d="M233.387 51.2706L210.327 77.6497L193.433 63.3786C192.549 62.6832 191.411 62.337 190.26 62.413C189.108 62.489 188.034 62.9814 187.263 63.786C186.491 64.5907 186.084 65.6447 186.127 66.7254C186.17 67.8061 186.66 68.8289 187.492 69.5777L207.821 86.6449C208.641 87.3355 209.703 87.7203 210.805 87.7265H211.143C211.741 87.6828 212.323 87.5272 212.855 87.2689C213.387 87.0106 213.858 86.6549 214.24 86.2229L240.257 56.5728C240.666 56.1552 240.981 55.6636 241.18 55.1282C241.38 54.5928 241.461 54.0248 241.419 53.459C241.376 52.8932 241.211 52.3415 240.933 51.8377C240.654 51.3339 240.27 50.8886 239.801 50.529C239.333 50.1694 238.791 49.9032 238.21 49.7466C237.628 49.59 237.018 49.5463 236.417 49.6182C235.817 49.69 235.238 49.876 234.717 50.1647C234.196 50.4534 233.743 50.8387 233.387 51.297V51.2706Z" fill="#051B2C"/>
</g>
</svg>
