<svg width="293" height="164" viewBox="0 0 293 164" fill="none" xmlns="http://www.w3.org/2000/svg">
<path d="M130.067 110.6H107.267V140H75.6666V110.6H0.266602V88.8L66.2666 0H100.267L39.0666 84.2H76.6666V58H107.267V84.2H130.067V110.6Z" fill="#27AE60"/>
<g>
<path d="M181.143 66.2601H162.066V137.008H181.143V66.2601Z" fill="#27AE60"/>
<path d="M236.499 140C248.2 139.322 255.456 138.325 259.144 136.809C262.393 135.492 267.795 133.079 268.632 131.204C269.734 128.063 270.3 124.759 270.307 121.43C270.307 121.43 274.652 115.646 275.191 112.515C275.735 108.938 276.101 105.337 276.287 101.724C276.287 101.724 283.025 93.965 283.224 90.7737C283.396 86.855 282.966 82.9332 281.948 79.1452C282.881 76.4937 283.504 73.7427 283.802 70.9475C283.802 64.5448 278.121 60.6355 278.121 60.6355H244.373C244.373 60.6355 247.782 33.908 246.546 23.1173C244.771 7.43984 230.778 1.17684 225.735 23.2569C220.432 46.4739 208.89 63.6672 196.811 69.8106V134.694C200.927 136.113 205.164 137.155 209.469 137.806C218.431 139.035 227.455 139.768 236.499 140Z" fill="#27AE60"/>
<path d="M187.462 133.318H168.366C167.671 133.318 167.005 133.044 166.512 132.554C166.019 132.065 165.74 131.4 165.734 130.705V59.9572C165.734 59.259 166.012 58.5893 166.505 58.0955C166.999 57.6018 167.668 57.3244 168.366 57.3244H187.462C188.157 57.3297 188.821 57.6094 189.31 58.1025C189.799 58.5957 190.074 59.2624 190.074 59.9572V130.705C190.074 131.398 189.799 132.063 189.309 132.553C188.819 133.043 188.155 133.318 187.462 133.318ZM170.997 128.072H184.831V62.5702H170.997V128.072Z" fill="#051B2C"/>
<path d="M242.798 136.33C242.1 136.348 241.424 136.089 240.917 135.608C240.411 135.128 240.116 134.465 240.097 133.767C240.079 133.069 240.338 132.392 240.818 131.885C241.299 131.378 241.961 131.083 242.659 131.064C253.981 130.426 261.117 129.449 264.466 128.072C271.503 125.2 272.539 123.784 272.579 123.724C273.511 120.947 273.989 118.037 273.995 115.108C273.996 114.541 274.178 113.989 274.513 113.532C276.39 111.178 277.877 108.538 278.918 105.713C279.636 101.524 279.975 95.2016 279.975 95.1418C280.003 94.5594 280.228 94.0038 280.613 93.566C283.862 89.8162 286.792 85.4082 286.892 84.1516C287.024 80.5524 286.607 76.9541 285.656 73.4806C285.487 72.9553 285.487 72.3902 285.656 71.8649C286.506 69.4863 287.075 67.0161 287.35 64.5049C287.267 63.0212 286.868 61.5723 286.181 60.255C285.493 58.9377 284.533 57.7822 283.364 56.8656H250.692C250.313 56.8701 249.937 56.7919 249.591 56.6363C249.245 56.4808 248.937 56.2518 248.689 55.9652C248.44 55.6786 248.257 55.3412 248.152 54.9766C248.047 54.612 248.023 54.2288 248.081 53.8538C248.081 53.5945 251.41 27.3059 250.253 17.0737C249.436 9.97293 245.788 5.42527 242.798 5.2657H242.639C240.067 5.2657 236.658 8.45704 234.665 17.5324C229.602 39.6723 218.718 57.6834 205.801 65.0833V126.417C207.934 127.015 211.781 127.993 216.346 128.91C217.031 129.048 217.632 129.452 218.019 130.033C218.406 130.615 218.546 131.327 218.409 132.012C218.272 132.697 217.868 133.299 217.286 133.686C216.705 134.073 215.994 134.214 215.309 134.076C207.854 132.58 202.611 130.965 202.392 130.905C201.858 130.738 201.391 130.404 201.061 129.951C200.73 129.499 200.554 128.952 200.558 128.392V63.5076C200.548 63.0291 200.671 62.5572 200.914 62.145C201.157 61.7327 201.51 61.3964 201.934 61.174C213.894 55.1902 224.638 37.5182 229.482 16.3556C232.951 1.11697 240.187 -0.15957 243.097 -3.27826e-06C249.317 0.339076 254.4 7.12067 255.476 16.4952C256.473 25.3312 254.499 44.2399 253.642 51.58H284.42C284.947 51.5818 285.46 51.7416 285.895 52.0387C286.174 52.2183 292.852 56.8258 292.733 64.5648C292.49 67.3708 291.908 70.137 290.998 72.8024C291.941 76.6229 292.323 80.5601 292.135 84.4907C291.935 87.9014 287.57 93.4863 285.178 96.3385C284.987 99.7856 284.621 103.221 284.081 106.631C283.046 110.02 281.397 113.191 279.217 115.985C279.124 119.399 278.45 122.771 277.224 125.958C276.546 127.514 274.732 129.548 266.34 132.959C262.353 134.595 255.097 135.632 242.858 136.33H242.798Z" fill="#051B2C"/>
<path d="M230.917 136.25H230.738C228.106 136.051 226.97 135.971 224.518 135.612C223.858 135.481 223.273 135.102 222.883 134.553C222.494 134.004 222.329 133.326 222.424 132.66C222.518 131.993 222.864 131.388 223.391 130.968C223.918 130.549 224.585 130.348 225.256 130.406C227.568 130.745 228.585 130.825 231.116 131.004C231.774 131.081 232.379 131.404 232.809 131.907C233.24 132.41 233.466 133.057 233.44 133.72C233.415 134.382 233.141 135.01 232.674 135.479C232.206 135.948 231.579 136.224 230.917 136.25Z" fill="#051B2C"/>
</g>
</svg>
