<svg width="316" height="280" viewBox="0 0 316 280" fill="none" xmlns="http://www.w3.org/2000/svg">
<path d="M306.561 279.999C311.647 279.999 315.798 276.034 315.876 271.089C316.265 246.441 318.307 210.084 270.572 200.029C231.943 191.892 254.847 125.136 150.814 129.449C76.1355 132.545 95.9749 193.756 37.9097 198.853C-0.727276 202.246 -1.0609 249.765 0.423566 271.538C0.748406 276.301 4.81111 280 9.71956 280H306.561V279.999Z" fill="#A9CAE1"/>
<path opacity="0.55" d="M270.572 200.028C231.943 191.891 254.847 125.135 150.814 129.448C133.052 130.185 120.644 134.212 111.256 139.987C114.419 139.584 117.775 139.3 121.353 139.152C225.385 134.838 202.483 201.595 241.111 209.732C288.337 219.68 286.842 255.371 286.428 279.998H306.561C311.646 279.998 315.798 276.033 315.875 271.088C316.265 246.44 318.306 210.083 270.572 200.028Z" fill="#D3E8F8"/>
<path d="M105.886 0H105.154V116.536H105.886V0Z" fill="#D3E8F8"/>
<path d="M223.657 0H222.926V134.438H223.657V0Z" fill="#D3E8F8"/>
<path d="M224.411 126.602L102.269 112.738C97.0493 112.145 92.3238 115.78 91.7151 120.857L82.5983 196.808C81.9889 201.884 85.7267 206.479 90.9468 207.071L213.089 220.935C218.309 221.527 223.035 217.892 223.643 212.816L232.759 136.865C233.369 131.79 229.632 127.194 224.411 126.602Z" fill="#EFF7FB"/>
<path d="M231.857 144.384L232.76 136.866C233.369 131.79 229.631 127.194 224.411 126.603L102.269 112.739C97.0488 112.146 92.3233 115.781 91.7146 120.858L90.8125 128.376L231.857 144.384Z" fill="#559ED2"/>
<path d="M110.573 174.364L126.056 147.836C127.048 146.137 128.989 145.18 130.985 145.406C133.729 145.718 135.693 148.133 135.374 150.801L132.153 177.634L132.29 177.65C134.191 177.865 135.553 179.54 135.331 181.388C135.109 183.236 133.388 184.56 131.487 184.345L131.35 184.329L130.763 189.216C130.524 191.212 128.665 192.642 126.612 192.409C124.559 192.176 123.089 190.369 123.328 188.372L123.915 183.485L112.769 182.22C110.864 182.004 109.501 180.328 109.723 178.476L110.018 176.014C110.088 175.432 110.277 174.872 110.573 174.364ZM124.772 176.348L126.769 159.707C126.783 159.592 126.623 159.541 126.565 159.642L117.417 175.339C117.256 175.617 117.437 175.964 117.763 176.001L124.265 176.739C124.515 176.767 124.742 176.592 124.772 176.348Z" fill="#559ED2"/>
<path d="M178.905 182.121L194.388 155.593C195.38 153.893 197.321 152.936 199.317 153.163C202.061 153.474 204.025 155.89 203.706 158.558L200.485 185.391L200.622 185.407C202.523 185.622 203.885 187.296 203.663 189.145C203.441 190.993 201.72 192.317 199.819 192.102L199.682 192.086L199.095 196.973C198.855 198.969 196.997 200.399 194.944 200.166C192.891 199.933 191.421 198.125 191.66 196.129L192.247 191.242L181.101 189.977C179.196 189.761 177.833 188.085 178.055 186.233L178.35 183.77C178.42 183.189 178.608 182.628 178.905 182.121ZM193.103 184.104L195.1 167.463C195.114 167.348 194.955 167.297 194.896 167.398L185.749 183.095C185.587 183.373 185.768 183.72 186.094 183.757L192.596 184.495C192.847 184.523 193.074 184.349 193.103 184.104Z" fill="#559ED2"/>
<path d="M148.185 158.758C149.085 151.261 153.661 147.437 161.096 148.281C168.531 149.125 172.079 153.87 171.179 161.368L168.254 185.736C167.354 193.234 162.777 197.057 155.343 196.214C147.907 195.37 144.36 190.624 145.26 183.126L148.185 158.758ZM152.777 184.454C152.375 187.801 153.737 189.245 156.146 189.518C158.555 189.791 160.223 188.692 160.624 185.345L163.661 160.04C164.063 156.693 162.701 155.249 160.292 154.976C157.883 154.703 156.216 155.803 155.814 159.15L152.777 184.454Z" fill="#559ED2"/>
<path d="M102.672 125.432C104.084 125.432 105.229 124.319 105.229 122.946C105.229 121.572 104.084 120.459 102.672 120.459C101.26 120.459 100.115 121.572 100.115 122.946C100.115 124.319 101.26 125.432 102.672 125.432Z" fill="white"/>
<path d="M114.922 126.824C116.334 126.824 117.479 125.71 117.479 124.337C117.479 122.964 116.334 121.851 114.922 121.851C113.51 121.851 112.365 122.964 112.365 124.337C112.365 125.71 113.51 126.824 114.922 126.824Z" fill="#78C6DC"/>
<path d="M127.621 128.265C129.034 128.265 130.178 127.152 130.178 125.779C130.178 124.405 129.034 123.292 127.621 123.292C126.209 123.292 125.064 124.405 125.064 125.779C125.064 127.152 126.209 128.265 127.621 128.265Z" fill="#FFAD64"/>
<path d="M49.3856 263.591C49.3856 263.591 47.7285 262.086 48.8405 256.377C49.9526 250.669 52.7737 245.186 51.3895 238.993C50.0053 232.8 39.1531 217.183 39.1165 216.145C39.08 215.106 35.7686 234.312 41.3809 241.878C46.9932 249.443 47.6685 252.068 47.419 256.046C47.1695 260.025 47.4768 263.229 48.0921 264.154L49.3856 263.591Z" fill="#FFDA8D"/>
<path d="M48.361 252.11C47.7084 254.656 47.3148 261.042 48.3573 262.571C48.4546 262.714 48.5951 262.632 48.7685 262.368C48.451 261.313 48.2425 259.463 48.8431 256.379C49.9552 250.67 52.7763 245.187 51.3921 238.994C50.0079 232.801 39.1557 217.185 39.1191 216.146C39.1191 216.146 40.7543 229.157 46.262 238.112C50.2054 244.524 49.0129 249.563 48.361 252.11Z" fill="#FFAD64"/>
<path d="M51.3659 263.194C51.3659 263.194 48.1775 255.453 53.5812 248.751C58.9842 242.049 67.6262 233.443 67.7981 230.034C67.7981 230.034 70.0186 246.221 62.9862 250.802C55.9531 255.384 51.0213 256.116 52.2409 263.165L51.3659 263.194Z" fill="#FFDA8D"/>
<path d="M58.9567 247.549C51.1144 253.1 50.4735 259.494 51.6902 262.459C51.7846 262.69 51.9638 262.831 52.2002 262.906C51.1488 256.102 56.0404 255.327 62.985 250.803C70.0181 246.222 67.7969 230.035 67.7969 230.035C67.7969 230.035 66.7989 241.998 58.9567 247.549Z" fill="#FFAD64"/>
<path d="M46.1228 263.368C46.1228 263.368 47.1457 259.27 46.6013 254.844C46.057 250.419 41.3037 247.93 36.862 243.256C34.5771 240.851 33.9011 228.134 35.3175 226.953C35.3175 226.953 27.476 236.194 28.6854 242.96C29.8947 249.726 42.6871 254.123 43.8709 257.393C45.0547 260.662 44.9566 263.407 44.9566 263.407L46.1228 263.368Z" fill="#FFDA8D"/>
<path d="M32.6665 230.591C30.0743 237.416 32.7316 245.682 41.3406 250.815C47.6786 254.595 45.6601 262.455 45.6601 262.455L46.6953 259.354C46.7868 258.014 46.797 256.452 46.5995 254.845C46.0551 250.42 41.3018 247.931 36.8601 243.257C34.6565 240.938 33.9497 229.029 35.1737 227.126C34.8145 227.565 33.8005 228.843 32.6665 230.591Z" fill="#FFAD64"/>
<path d="M35.1758 227.125C35.265 227.016 35.3185 226.953 35.3185 226.953C35.2672 226.995 35.2204 227.056 35.1758 227.125Z" fill="#43ADC8"/>
<path d="M53.0059 262.856C53.0059 262.856 54.8437 256.224 59.3893 255.331C63.9348 254.439 69.1542 247.907 69.4366 246.626C69.4366 246.627 68.6699 258.945 53.0059 262.856Z" fill="#FFDA8D"/>
<path d="M59.13 257.524C56.3447 258.879 55.1866 260.7 54.7754 262.354C68.7216 257.993 69.4371 246.627 69.4371 246.627C69.3815 246.88 69.1269 247.343 68.7289 247.923C67.3607 250.253 64.0494 255.132 59.13 257.524Z" fill="#FFAD64"/>
<path d="M62.8444 260.414H39.0703L41.8936 277.681C42.108 278.991 43.2691 279.955 44.6328 279.955H57.2818C58.6456 279.955 59.8067 278.991 60.021 277.681L62.8444 260.414Z" fill="#559ED2"/>
<path d="M62.3769 263.271L62.8444 260.414H39.0703L39.5371 263.271H62.3769Z" fill="#246492"/>
<path d="M57.0821 260.414L54.2587 277.681C54.0444 278.991 52.8833 279.954 51.5195 279.954H57.2789C58.6426 279.954 59.8037 278.99 60.018 277.681L62.8414 260.414H57.0821Z" fill="#246492"/>
<path d="M226.819 229.62H119.371V250.864H226.819V229.62Z" fill="#FFAD64"/>
<path opacity="0.29" d="M226.819 229.62H119.371V234.777H226.819V229.62Z" fill="#B9693C"/>
<path d="M128.714 229.62H138.521L135.893 234.779H126.08L128.714 229.62Z" fill="#FFAD64"/>
<path d="M150.808 229.62H160.615L157.986 234.779H148.18L150.808 229.62Z" fill="#FFAD64"/>
<path d="M172.904 229.62H182.711L180.082 234.779H170.275L172.904 229.62Z" fill="#FFAD64"/>
<path d="M194.998 229.62H204.799L202.171 234.779H192.369L194.998 229.62Z" fill="#FFAD64"/>
<path d="M226.819 229.62V229.764L224.259 234.779H214.463L217.092 229.62H226.819Z" fill="#FFAD64"/>
<path d="M140.321 250.866H132.746V279.914H140.321V250.866Z" fill="#D3E8F8"/>
<path d="M140.32 250.866H138.6V279.914H140.32V250.866Z" fill="#559ED2"/>
<path d="M214.033 250.866H206.459V279.914H214.033V250.866Z" fill="#D3E8F8"/>
<path d="M214.034 250.866H211.795V279.914H214.034V250.866Z" fill="#559ED2"/>
<path d="M140.321 250.844H132.746V254.502H140.321V250.844Z" fill="#559ED2"/>
<path d="M214.033 250.844H206.459V254.502H214.033V250.844Z" fill="#559ED2"/>
<path d="M140.321 226.301H132.746V229.599H140.321V226.301Z" fill="#559ED2"/>
<path d="M140.32 226.301H138.6V229.599H140.32V226.301Z" fill="#559ED2"/>
<path d="M214.033 226.301H206.459V229.599H214.033V226.301Z" fill="#559ED2"/>
<path d="M214.034 226.301H211.795V229.599H214.034V226.301Z" fill="#559ED2"/>
<path d="M140.321 229.188H132.746V229.603H140.321V229.188Z" fill="#559ED2"/>
<path d="M214.033 229.188H206.459V229.603H214.033V229.188Z" fill="#559ED2"/>
<path d="M138.521 229.62L127.685 250.865H119.371V247.934L128.714 229.62H138.521Z" fill="#EFF7FB"/>
<path d="M150.809 229.62L139.973 250.865H149.78L160.616 229.62H150.809Z" fill="#EFF7FB"/>
<path d="M182.709 229.62L171.873 250.865H162.066L172.902 229.62H182.709Z" fill="#EFF7FB"/>
<path d="M204.798 229.62L193.967 250.865H184.16L194.996 229.62H204.798Z" fill="#EFF7FB"/>
<path d="M217.093 229.62L206.256 250.865H216.058L226.82 229.764L217.093 229.62Z" fill="#EFF7FB"/>
<path d="M138.521 229.62L135.893 234.779H126.08L128.714 229.62H138.521Z" fill="#559ED2"/>
<path d="M160.615 229.62L157.986 234.779H148.18L150.808 229.62H160.615Z" fill="#559ED2"/>
<path d="M182.709 229.62L180.08 234.779H170.273L172.902 229.62H182.709Z" fill="#559ED2"/>
<path d="M204.799 229.62L202.171 234.779H192.369L194.998 229.62H204.799Z" fill="#559ED2"/>
<path d="M226.819 229.764L224.259 234.779H214.463L217.092 229.62L226.819 229.764Z" fill="#559ED2"/>
<path d="M136.336 228.259C140.066 228.259 143.089 225.319 143.089 221.691C143.089 218.064 140.066 215.124 136.336 215.124C132.606 215.124 129.582 218.064 129.582 221.691C129.582 225.319 132.606 228.259 136.336 228.259Z" fill="white"/>
<path d="M136.336 224.668C138.026 224.668 139.396 223.335 139.396 221.692C139.396 220.048 138.026 218.716 136.336 218.716C134.646 218.716 133.275 220.048 133.275 221.692C133.275 223.335 134.646 224.668 136.336 224.668Z" fill="#559ED2"/>
<path d="M210.201 228.259C213.931 228.259 216.954 225.319 216.954 221.691C216.954 218.064 213.931 215.124 210.201 215.124C206.471 215.124 203.447 218.064 203.447 221.691C203.447 225.319 206.471 228.259 210.201 228.259Z" fill="white"/>
<path d="M210.201 224.668C211.891 224.668 213.261 223.335 213.261 221.692C213.261 220.048 211.891 218.716 210.201 218.716C208.511 218.716 207.141 220.048 207.141 221.692C207.141 223.335 208.511 224.668 210.201 224.668Z" fill="#559ED2"/>
<path d="M267.527 277.663H233.307L238.541 265.324V265.317L240.646 260.339L241.226 258.974L242.172 256.753L242.365 256.3L244.47 251.321L244.857 250.417L248.588 241.608C249.261 240.02 251.574 240.02 252.247 241.608L255.977 250.417L256.364 251.321L258.469 256.3L258.662 256.753L259.608 258.974L260.188 260.339L262.293 265.317V265.324L267.527 277.663Z" fill="#F7BF4D"/>
<path opacity="0.29" d="M235.549 272.372L233.307 277.662H267.529L265.287 272.372H235.549Z" fill="#B9693C"/>
<path d="M269.766 274.5H230.572V279.888H269.766V274.5Z" fill="#D3E8F8"/>
<path d="M269.765 274.5H261.297V279.888H269.765V274.5Z" fill="#559ED2"/>
<path opacity="0.29" d="M266.181 274.498H261.34L257.452 265.327V265.32L255.347 260.341L254.767 258.977L253.822 256.756L253.628 256.303L251.523 251.324L251.136 250.419L248 243.003L248.587 241.611C249.261 240.023 251.573 240.023 252.246 241.611L255.977 250.419L256.364 251.324L258.469 256.303L258.662 256.756L259.607 258.977L260.187 260.341L262.293 265.32V265.327L266.181 274.498Z" fill="#B9693C"/>
<path d="M258.47 256.3H242.365L244.471 251.321H256.364L258.47 256.3Z" fill="#D3E8F8"/>
<path d="M262.292 265.319V265.325H238.541V265.319L240.646 260.34H260.188L262.292 265.319Z" fill="#D3E8F8"/>
<path d="M258.469 256.3H253.628L251.523 251.321H256.364L258.469 256.3Z" fill="#559ED2"/>
<path d="M262.294 265.319V265.325H257.453V265.319L255.348 260.34H260.189L262.294 265.319Z" fill="#559ED2"/>
<path d="M49.3959 156.669C51.953 156.669 54.1756 154.863 54.521 152.4C54.5831 151.959 54.6146 151.507 54.6146 151.049C54.6146 145.565 50.0427 141.119 44.4019 141.119C44.1707 141.119 43.9417 141.129 43.7142 141.144C43.2481 135.735 38.5892 131.486 32.9066 131.486C26.9147 131.486 22.0574 136.21 22.0574 142.037C22.0574 142.295 22.0706 142.55 22.0889 142.804C20.3886 141.881 18.4066 141.387 16.2988 141.481C10.8497 141.724 6.37219 145.962 5.98662 151.253C5.9837 151.295 5.98076 151.337 5.97784 151.379C5.80225 154.257 8.19465 156.671 11.1592 156.671H49.3959V156.669Z" fill="#D3E8F8"/>
<path d="M293.125 164.469C301.201 164.469 301.648 152.65 293.582 152.269C293.362 152.258 293.14 152.253 292.917 152.253C291.477 152.253 290.091 152.475 288.79 152.881C287.71 146.484 282.001 141.603 275.117 141.603C268.082 141.603 262.275 146.702 261.382 153.307C259.712 152.528 257.843 152.092 255.868 152.092C254.764 152.092 253.694 152.228 252.673 152.484C245.611 154.253 247.093 164.47 254.385 164.47H293.125V164.469Z" fill="#D3E8F8"/>
<path d="M196.143 106.237C204.217 106.237 204.664 94.4219 196.6 94.0406C196.38 94.0299 196.158 94.0249 195.935 94.0249C194.496 94.0249 193.109 94.2469 191.809 94.6531C190.73 88.2578 185.023 83.3779 178.141 83.3779C171.108 83.3779 165.303 88.4755 164.41 95.0786C162.741 94.301 160.872 93.8648 158.898 93.8648C157.795 93.8648 156.725 94.0007 155.704 94.2561C148.645 96.0241 150.127 106.238 157.416 106.238H196.143V106.237Z" fill="#D3E8F8"/>
<path d="M67.6051 128.076C78.2946 128.076 86.9601 119.649 86.9601 109.254C86.9601 98.8593 78.2946 90.4326 67.6051 90.4326C56.9156 90.4326 48.25 98.8593 48.25 109.254C48.25 119.649 56.9156 128.076 67.6051 128.076Z" fill="#FFDA8D"/>
<path d="M67.7639 90.4365C73.0279 93.8003 76.506 99.5909 76.506 106.173C76.506 116.568 67.8407 124.995 57.1509 124.995C57.0975 124.995 57.0449 124.991 56.9922 124.991C60.0401 126.939 63.6851 128.075 67.6051 128.075C78.2948 128.075 86.9601 119.648 86.9601 109.253C86.9594 98.9107 78.3797 90.5198 67.7639 90.4365Z" fill="#FFAD64"/>
</svg>
