<svg width="26" height="32" viewBox="0 0 26 32" fill="none" xmlns="http://www.w3.org/2000/svg">
<path d="M19.5157 2.57731L15.0965 3.56355L12.952 9.05565L10.8292 1.15638L5.07179 0L3.97949 6.52321L12.8521 10.6794L19.8615 8.10119L19.5157 2.57731V2.57731ZM6.13863 5.77722L6.88609 3.22421L9.56738 3.53738L12.4534 9.70816L6.13863 5.77722ZM18.2911 7.23929L13.5271 9.70722L16.4484 5.43227L17.8963 5.09573L18.2911 7.23929Z" fill="#FB3449"/>
<path fill-rule="evenodd" clip-rule="evenodd" d="M7.10241 21.0695L7.37573 11.9531L0 12.1635L1.4293 20.7377L3.68052 20.8686V31.2891L5.9915 31.3741L5.3753 20.9686L7.10241 21.0695Z" fill="#FB3449"/>
<path fill-rule="evenodd" clip-rule="evenodd" d="M24.6997 22.1014L25.4246 16.1437L22.8707 21.9929L24.6997 22.1014ZM20.2355 11.5874L17.7188 21.6919L19.1187 31.8553L23.0647 32.0002L22.3192 21.9611L21.3826 21.9069V30.5662L20.7125 30.5587L20.0415 21.8284L25.6255 14.4966L25.9997 11.4229L20.2355 11.5874Z" fill="#FB3449"/>
<path fill-rule="evenodd" clip-rule="evenodd" d="M16.4178 21.6139L17.1182 21.656L17.0771 11.6768L13.9412 11.7656L13.132 21.4223L12.3219 21.3756L11.7547 11.8282L8.58552 11.9189L8.46503 21.1493L7.47559 21.0961V31.4277L9.37218 31.4969L9.61513 21.2166L10.2734 21.254L11.3128 31.568L12.94 31.6287L13.8971 21.4681L14.6838 21.5139L14.8543 31.6988L17.1839 31.7839L16.4178 21.6139Z" fill="#FB3449"/>
</svg>
