<?xml version="1.0" standalone="no"?>
<!DOCTYPE svg PUBLIC "-//W3C//DTD SVG 20010904//EN"
 "http://www.w3.org/TR/2001/REC-SVG-20010904/DTD/svg10.dtd">
<svg version="1.0" xmlns="http://www.w3.org/2000/svg"
 width="1024.000000pt" height="1024.000000pt" viewBox="0 0 1024.000000 1024.000000"
 preserveAspectRatio="xMidYMid meet">
<metadata>
Created by potrace 1.14, written by Peter Selinger 2001-2017
</metadata>
<g transform="translate(0.000000,1024.000000) scale(0.100000,-0.100000)"
fill="#000000" stroke="none">
<path d="M2580 10231 c0 -5 -77 -467 -170 -1027 -94 -559 -170 -1026 -168
-1037 2 -15 77 -54 333 -174 182 -85 467 -219 635 -298 168 -78 557 -261 865
-405 308 -144 656 -307 774 -363 118 -55 219 -100 226 -100 6 0 195 68 420
151 542 199 1730 636 1778 653 33 12 37 17 37 49 1 19 -23 416 -52 883 -36
574 -56 847 -63 847 -19 0 -1397 -309 -1402 -314 -5 -5 -126 -312 -558 -1421
-65 -165 -120 -306 -124 -313 -8 -14 -21 33 -281 1003 -89 330 -190 706 -225
835 -35 129 -89 332 -120 450 -32 118 -58 216 -60 218 -2 2 -1833 372 -1842
372 -1 0 -3 -4 -3 -9z m1000 -1071 c190 -22 367 -43 393 -46 l49 -6 42 -92
c56 -118 334 -713 621 -1326 125 -267 234 -500 242 -519 l14 -33 -38 23 c-243
148 -1952 1214 -1962 1224 -12 12 2 71 104 420 l119 406 36 -6 c19 -3 190 -23
380 -45z m3120 -617 c6 -38 33 -188 61 -334 27 -146 49 -271 49 -277 0 -10
-76 -50 -550 -295 -113 -58 -374 -194 -580 -301 -206 -107 -376 -193 -378
-191 -3 3 900 1330 918 1349 7 6 423 111 461 115 4 1 12 -29 19 -66z"/>
<path d="M8325 6559 c-346 -10 -689 -21 -760 -25 l-131 -6 -402 -1616 -402
-1617 124 -900 c69 -495 169 -1221 223 -1613 54 -393 101 -719 105 -725 5 -8
118 -15 350 -23 189 -7 468 -18 622 -24 153 -6 280 -9 282 -7 4 3 -23 374
-121 1687 -8 107 -35 474 -60 815 -25 341 -47 639 -51 662 -5 41 -6 42 -47 47
-23 3 -90 8 -149 11 l-108 6 0 -1385 0 -1386 -105 0 c-58 0 -105 1 -106 3 0 1
-49 630 -108 1397 l-108 1395 893 1172 894 1173 55 457 c31 252 58 473 61 491
l6 32 -163 -1 c-90 -1 -447 -10 -794 -20z"/>
<path d="M5793 6486 c-199 -6 -364 -14 -367 -17 -5 -5 -102 -1141 -216 -2524
-22 -269 -43 -505 -46 -524 l-5 -34 -127 7 c-69 3 -127 8 -128 9 -1 1 -9 128
-18 282 -9 154 -30 503 -46 775 -16 272 -47 803 -69 1180 -22 377 -43 713 -47
748 l-6 62 -71 0 c-110 0 -932 -22 -935 -26 -4 -2 -41 -2559 -42 -2827 l0
-128 -52 5 c-29 3 -101 8 -161 11 l-107 6 2 -1653 3 -1653 155 -7 c85 -3 221
-9 301 -12 l147 -6 6 242 c11 382 44 1821 56 2378 6 278 13 543 16 589 l6 83
101 -7 c56 -4 103 -8 103 -9 2 -1 3 -7 139 -1361 176 -1751 194 -1928 198
-1932 6 -5 508 -26 513 -21 4 5 22 169 59 568 14 151 37 394 51 540 48 512 74
788 99 1055 14 149 32 338 39 420 8 83 25 256 36 385 12 129 23 245 26 258 4
22 6 22 122 16 64 -4 120 -9 124 -13 6 -6 21 -775 49 -2536 7 -390 13 -712 15
-714 5 -5 735 -34 739 -29 2 2 -18 296 -45 653 -27 358 -61 803 -75 990 -14
187 -34 455 -45 595 -11 140 -31 410 -45 600 -14 190 -27 360 -28 379 l-3 34
112 -7 112 -6 -4 1563 c-3 859 -7 1577 -10 1595 l-5 32 -132 -2 c-73 -1 -295
-6 -494 -12z"/>
<path d="M2900 6403 c-52 -2 -410 -12 -795 -23 -385 -11 -800 -23 -923 -26
l-222 -7 5 -31 c3 -17 106 -633 229 -1369 122 -735 225 -1339 227 -1341 2 -2
144 -11 314 -20 171 -9 331 -19 358 -22 l47 -6 0 -1663 0 -1663 83 -6 c111 -8
649 -27 652 -24 1 2 -17 329 -41 728 -23 399 -66 1112 -93 1585 -28 473 -54
895 -57 938 -5 62 -4 77 7 77 8 0 130 -7 272 -16 142 -9 261 -14 264 -10 3 3
9 128 14 278 5 150 15 507 24 793 9 286 24 807 35 1159 11 351 20 647 20 657
0 18 -9 19 -162 17 -90 -1 -206 -3 -258 -5z"/>
<path d="M9018 4897 c-36 -84 -144 -330 -238 -547 -95 -217 -246 -563 -336
-769 -90 -206 -163 -376 -161 -377 7 -7 571 -34 577 -27 8 9 234 1862 228
1868 -2 2 -33 -65 -70 -148z"/>
</g>
</svg>
